#!OML:ASF I:\Actors\actors\Patient Classification 1\Patient 1\Session 1\Subject1.ASF
:FULLY-SPECIFIED
:DEGREES
2202
root -0.0256819 17.4442 8.42218 9.47974 1.36573 -5.66026
lowerback 3.90968 1.26775 3.48776
upperback -6.55844 2.02248 0.202058
thorax -9.00771 0.760732 -1.97279
lowerneck -12.0385 -4.39293 -1.33666
upperneck 27.3235 -7.26327 4.5157
head 11.0308 -2.91274 0.914034
rclavicle -6.08778e-016 -1.39149e-014
rhumerus -52.5928 -27.0556 -66.5604
rradius 21.2771
rwrist 18.9993
rhand 13.2269 688.521
rfingers 7.12502
rthumb 38.1801 -57.2288
lclavicle -6.08778e-016 -1.39149e-014
lhumerus -53.0105 21.2008 68.6748
lradius 20.3717
lwrist -2.98685
lhand -14.312 -8.92286
lfingers 7.12502
lthumb 11.8283 -339.277
rfemur -3.60556 25.4062 20.0335
rtibia 2.04857
rfoot -13.0579 -28.2879
rtoes 4.02859
lfemur 186.023 231.184 164.17
ltibia -4.63521
lfoot 147.786 239.811
ltoes 18.1372
2203
root -0.0265685 17.4457 8.41955 9.49784 1.33944 -5.61345
lowerback 3.77874 1.2711 3.4409
upperback -6.46014 2.01518 0.209944
thorax -8.82393 0.765798 -1.93185
lowerneck -11.9732 -4.4286 -1.46003
upperneck 26.6487 -7.28487 4.67665
head 10.7768 -2.93369 0.991548
rclavicle -1.43125e-014 -5.1684e-015
rhumerus -52.2579 -26.8237 -66.9495
rradius 20.7158
rwrist 20.2197
rhand 14.8427 688.319
rfingers 7.12502
rthumb 39.7036 -56.9955
lclavicle -1.43125e-014 -5.1684e-015
lhumerus -52.6256 19.7633 70.4289
lradius 20.3606
lwrist -3.02469
lhand -14.4987 -8.41035
lfingers 7.12502
lthumb 11.6482 -338.754
rfemur -3.66621 25.3387 19.9542
rtibia 2.08412
rfoot -12.9929 -28.2455
rtoes 3.8317
lfemur 185.969 231.149 164.149
ltibia -4.61251
lfoot 147.895 239.813
ltoes 18.0349
2204
root -0.0278788 17.4473 8.41745 9.50091 1.26323 -5.55369
lowerback 3.63844 1.3037 3.35487
upperback -6.36626 2.04422 0.219815
thorax -8.63891 0.791198 -1.87065
lowerneck -11.6149 -4.46003 -1.29048
upperneck 25.6044 -7.24495 4.49077
head 10.3039 -2.9531 0.912394
rclavicle 2.74571e-015 1.51076e-014
rhumerus -51.9187 -26.3492 -67.5628
rradius 20.3741
rwrist 20.9711
rhand 16.0861 687.972
rfingers 7.12502
rthumb 40.873 -56.9842
lclavicle 2.74571e-015 1.51076e-014
lhumerus -52.4406 18.9314 71.383
lradius 20.1704
lwrist -2.87751
lhand -14.3085 -10.0965
lfingers 7.12502
lthumb 11.8317 -340.451
rfemur -3.69489 25.3045 19.8668
rtibia 2.08787
rfoot -12.9789 -28.1634
rtoes 3.81726
lfemur 185.967 231.094 164.072
ltibia -4.59604
lfoot 147.788 239.776
ltoes 18.1983
2205
root -0.0295727 17.4487 8.41483 9.50882 1.2138 -5.58029
lowerback 3.4979 1.35411 3.3669
upperback -6.28526 2.10634 0.239856
thorax -8.46434 0.826309 -1.85703
lowerneck -11.2501 -4.52752 -1.31092
upperneck 24.5783 -7.28357 4.55471
head 9.86683 -2.99752 0.944855
rclavicle -2.52208e-015 2.38542e-015
rhumerus -51.6424 -25.8523 -68.2196
rradius 20.2455
rwrist 21.4182
rhand 16.9472 687.54
rfingers 7.12502
rthumb 41.6813 -57.1563
lclavicle -2.52208e-015 2.38542e-015
lhumerus -52.1208 17.587 73.1034
lradius 20.4698
lwrist -2.56442
lhand -15.7319 -8.71016
lfingers 7.12502
lthumb 10.4588 -338.99
rfemur -3.71897 25.3559 19.8889
rtibia 2.07378
rfoot -12.9597 -28.1625
rtoes 3.83778
lfemur 185.907 230.997 164.159
ltibia -4.59157
lfoot 147.881 239.732
ltoes 18.2448
2206
root -0.0309451 17.4498 8.41232 9.52713 1.2 -5.64674
lowerback 3.36191 1.40009 3.43778
upperback -6.21758 2.16755 0.262023
thorax -8.30579 0.856853 -1.874
lowerneck -10.9756 -4.61506 -1.45174
upperneck 23.6049 -7.36367 4.75629
head 9.48547 -3.05404 1.03777
rclavicle -2.25869e-014 1.59028e-015
rhumerus -51.4174 -25.4839 -68.7749
rradius 20.1983
rwrist 21.7168
rhand 17.2048 687.078
rfingers 7.12502
rthumb 41.9228 -57.5382
lclavicle -2.25869e-014 1.59028e-015
lhumerus -51.9267 17.0846 73.8507
lradius 20.4654
lwrist -2.68254
lhand -16.7935 -8.40139
lfingers 7.12502
lthumb 9.43461 -338.633
rfemur -3.73101 25.5012 19.9691
rtibia 2.0433
rfoot -12.9357 -28.2961
rtoes 3.89623
lfemur 185.812 230.895 164.328
ltibia -4.5983
lfoot 147.95 239.671
ltoes 18.2229
2207
root -0.0328875 17.4497 8.41044 9.56127 1.17409 -5.66565
lowerback 3.22571 1.44612 3.43164
upperback -6.17189 2.22335 0.283321
thorax -8.17379 0.888918 -1.84845
lowerneck -10.6795 -4.70038 -1.45442
upperneck 22.606 -7.41662 4.7555
head 9.08246 -3.10891 1.04273
rclavicle 1.00386e-014 4.77083e-015
rhumerus -51.1731 -25.0605 -69.3472
rradius 20.1771
rwrist 21.6456
rhand 16.6641 686.66
rfingers 7.12502
rthumb 41.4157 -58.1225
lclavicle 1.00386e-014 4.77083e-015
lhumerus -51.8271 17.1717 73.9557
lradius 20.3166
lwrist -2.92849
lhand -17.5192 -8.54577
lfingers 7.12502
lthumb 8.73431 -338.746
rfemur -3.76224 25.64 19.9873
rtibia 2.0303
rfoot -12.9474 -28.3834
rtoes 3.93091
lfemur 185.746 230.9 164.412
ltibia -4.59777
lfoot 147.83 239.679
ltoes 18.2431
